# xmcd CD database file
#
# Track frame offsets:
#	150
#	10220
#	20370
#	30652
#	40857
#	50914
#	63860
#	74398
#	84977
#	95695
#	106394
#	117038
#	127739
#	138772
#	150108
#	161311
#	172479
#	183641
#	194770
#	206479
#	218017
#	229670
#
# Disc length: 3216 seconds
#
# Revision: 0
# Processed by: cddbd v1.5.1PL0 Copyright (c) Steve Scherf et al.
# Submitted via: CDex 1.51
#
DISCID=260c8e16
DTITLE=fats waller - just jazz volume 1
DYEAR=1900
DGENRE=Jazz
TTITLE0=beat it out
TTITLE1=hold tight
TTITLE2=love, i'd give my life for you
TTITLE3=the love bug will bite you
TTITLE4=there goes my attraction
TTITLE5=is posin'
TTITLE6=let's sing again
TTITLE7=bye bye baby
TTITLE8=the more i know you
TTITLE9=i've got a new lease on love
TTITLE10=the wide open places
TTITLE11=we, the poeple
TTITLE12=to a sweet prety thing
TTITLE13=loafin' time
TTITLE14=there's going to be the devil to pray
TTITLE15=how ya, baby ?
TTITLE16=remember who you're promised to
TTITLE17=spring cleaning
TTITLE18=san anton'
TTITLE19=you're laughing at me
TTITLE20=imagine my surprise
TTITLE21=oooh ! look-a there, ain't she pretty ?
EXTD=
EXTT0=
EXTT1=
EXTT2=
EXTT3=
EXTT4=
EXTT5=
EXTT6=
EXTT7=
EXTT8=
EXTT9=
EXTT10=
EXTT11=
EXTT12=
EXTT13=
EXTT14=
EXTT15=
EXTT16=
EXTT17=
EXTT18=
EXTT19=
EXTT20=
EXTT21=
PLAYORDER=
